<svg id="Layer_1" data-name="Layer 1" xmlns="http://www.w3.org/2000/svg" viewBox="0 0 16 16"><defs><style>.cls-1{fill:#fca2be;}</style></defs><path class="cls-1" d="M14.18.82H2.68a2.25,2.25,0,0,0-1.59.66,2.29,2.29,0,0,0-.66,1.6V14.57a2.25,2.25,0,0,0,.66,1.59,2.21,2.21,0,0,0,1.59.66H7.91V11h-2V8.71h2V7A3,3,0,0,1,8.7,4.81,2.92,2.92,0,0,1,10.84,4a9.86,9.86,0,0,1,1.75.1v2h-1.2a1.13,1.13,0,0,0-.89.28,1.27,1.27,0,0,0-.23.82V8.71h2.25L12.22,11h-2v5.84h3.91a2.22,2.22,0,0,0,1.59-.66,2.25,2.25,0,0,0,.66-1.59V3.08a2.29,2.29,0,0,0-.66-1.6A2.27,2.27,0,0,0,14.18.82Z" transform="translate(-0.43 -0.82)"/></svg>
