<svg id="Layer_1" data-name="Layer 1" xmlns="http://www.w3.org/2000/svg" viewBox="0 0 16 16"><defs><style>.cls-1{fill:#fca2be;}</style></defs><path class="cls-1" d="M13.67,4.79a1,1,0,0,1-.07.35,1.21,1.21,0,0,1-.2.3,1,1,0,0,1-.3.2.92.92,0,0,1-.36.07.84.84,0,0,1-.35-.07.88.88,0,0,1-.3-.2.83.83,0,0,1-.2-.3.84.84,0,0,1-.07-.35.9.9,0,0,1,.27-.66.93.93,0,0,1,.65-.27,1,1,0,0,1,.66.27A.94.94,0,0,1,13.67,4.79ZM16.61,9h0l-.05,3.35A4.63,4.63,0,0,1,12,16.91L8.61,17h0l-3.36-.06A4.63,4.63,0,0,1,.66,12.33L.61,9V9L.66,5.6A4.63,4.63,0,0,1,5.24,1L8.61,1h0L12,1A4.63,4.63,0,0,1,16.56,5.6ZM15.12,9l0-3.35A3.16,3.16,0,0,0,12,2.51l-3.34,0-3.35,0A3.14,3.14,0,0,0,2.15,5.62L2.1,9l0,3.34a3.14,3.14,0,0,0,3.11,3.11l3.35.06L12,15.42a3.16,3.16,0,0,0,3.12-3.11Zm-2.4,0a4.11,4.11,0,1,1-1.21-2.91A4.12,4.12,0,0,1,12.72,9ZM11.23,9A2.61,2.61,0,0,0,8.61,6.35a2.6,2.6,0,0,0-1.85.76,2.62,2.62,0,0,0,0,3.71,2.63,2.63,0,0,0,3.7,0A2.63,2.63,0,0,0,11.23,9Z" transform="translate(-0.61 -0.97)"/></svg>
