<svg id="Layer_1" data-name="Layer 1" xmlns="http://www.w3.org/2000/svg" viewBox="0 0 16 16"><defs><style>.cls-1{fill:#fca2be;}</style></defs><path class="cls-1" d="M14,1H2.52A2.24,2.24,0,0,0,.27,3.22V14.71A2.25,2.25,0,0,0,2.52,17H14a2.25,2.25,0,0,0,2.26-2.26V3.22A2.24,2.24,0,0,0,14,1ZM5.6,13.75a.42.42,0,0,1-.08.18.42.42,0,0,1-.18.08H3.49a.42.42,0,0,1-.18-.08.42.42,0,0,1-.08-.18V7.26a.42.42,0,0,1,.08-.18A.36.36,0,0,1,3.49,7H5.34a.42.42,0,0,1,.18.08.41.41,0,0,1,.08.19ZM5.3,5.89a1.13,1.13,0,0,1-.41.27,1.28,1.28,0,0,1-.48.09,1.21,1.21,0,0,1-.88-.36,1.13,1.13,0,0,1-.27-.41A1,1,0,0,1,3.17,5a1.18,1.18,0,0,1,.36-.86,1.12,1.12,0,0,1,.4-.28,1.15,1.15,0,0,1,.48-.1,1.19,1.19,0,0,1,.49.1,1.12,1.12,0,0,1,.4.28A1.18,1.18,0,0,1,5.66,5,1.21,1.21,0,0,1,5.3,5.89Zm8.16,7.86a.36.36,0,0,1,0,.1.16.16,0,0,1-.06.08.24.24,0,0,1-.08.06l-.1,0H11.31a.27.27,0,0,1-.26-.26v-4A1.47,1.47,0,0,0,10.87,9a1,1,0,0,0-.73-.24,1.07,1.07,0,0,0-.92.39A1.91,1.91,0,0,0,9,10.23v3.52a.36.36,0,0,1,0,.1l-.06.08A.21.21,0,0,1,8.8,14l-.1,0H6.85a.42.42,0,0,1-.18-.08.33.33,0,0,1-.08-.18V7.26a.33.33,0,0,1,.08-.18A.36.36,0,0,1,6.85,7H8.64A.53.53,0,0,1,8.8,7a.39.39,0,0,1,.08.14v.11l0,0v.16a2.51,2.51,0,0,1,1.83-.65,2.92,2.92,0,0,1,2,.63,2.47,2.47,0,0,1,.72,1.91Z" transform="translate(-0.27 -0.97)"/></svg>
