<svg id="Layer_1" data-name="Layer 1" xmlns="http://www.w3.org/2000/svg" viewBox="0 0 16 14"><defs><style>.cls-1{fill:#fca2be;}</style></defs><path class="cls-1" d="M15.15,4.32v.44A10.94,10.94,0,0,1,14.1,9.44a9.7,9.7,0,0,1-3.24,3.82A8.46,8.46,0,0,1,5.8,14.82a8.51,8.51,0,0,1-5-1.58,6.77,6.77,0,0,0,.78,0,6,6,0,0,0,4.09-1.52,2.93,2.93,0,0,1-1.9-.69A3.65,3.65,0,0,1,2.55,9.3a2.1,2.1,0,0,0,.63.07,3.46,3.46,0,0,0,.87-.1A3.23,3.23,0,0,1,2.18,8,3.54,3.54,0,0,1,1.43,5.8V5.74a2.77,2.77,0,0,0,1.46.43A3.32,3.32,0,0,1,1.43,3.25,3.8,3.8,0,0,1,1.9,1.46a8.53,8.53,0,0,0,6.75,3.7,3.08,3.08,0,0,1-.1-.8A3.57,3.57,0,0,1,9.5,1.87a3.14,3.14,0,0,1,4.74.06,6.27,6.27,0,0,0,2.09-.84A3.49,3.49,0,0,1,14.9,3a6,6,0,0,0,1.87-.57A7,7,0,0,1,15.15,4.32Z" transform="translate(-0.77 -0.82)"/></svg>
